<svg width="36" height="143" viewBox="0 0 36 143" fill="none" xmlns="http://www.w3.org/2000/svg">
<path d="M35 134.949V142.858L0.0909081 130.807L0.0909081 121.295L35 109.261V117.17L8.06818 125.915V126.188L35 134.949ZM21.2784 135.443V116.761H27.0398V135.443H21.2784ZM35 105.06H0.0909081L0.0909081 97.7983H13.2159V97.5767C12.5114 97.2585 11.7955 96.7983 11.0682 96.196C10.3295 95.5824 9.71591 94.7869 9.22727 93.8097C8.72727 92.821 8.47727 91.5937 8.47727 90.1278C8.47727 88.2187 8.97727 86.4574 9.97727 84.8438C10.9659 83.2301 12.4602 81.9403 14.4602 80.9744C16.4489 80.0085 18.9432 79.5256 21.9432 79.5256C24.8636 79.5256 27.3295 79.9972 29.3409 80.9403C31.3409 81.8722 32.858 83.1449 33.892 84.7585C34.9148 86.3608 35.4261 88.1562 35.4261 90.1449C35.4261 91.554 35.1932 92.7528 34.7273 93.7415C34.2614 94.7188 33.6761 95.5199 32.9716 96.1449C32.2557 96.7699 31.5341 97.2472 30.8068 97.5767V97.9006H35V105.06ZM21.9091 97.9517C23.4659 97.9517 24.8239 97.7358 25.983 97.304C27.142 96.8722 28.0455 96.2472 28.6932 95.429C29.3295 94.6108 29.6477 93.6165 29.6477 92.446C29.6477 91.2642 29.3239 90.2642 28.6761 89.446C28.017 88.6278 27.108 88.0085 25.9489 87.5881C24.7784 87.1562 23.4318 86.9403 21.9091 86.9403C20.3977 86.9403 19.0682 87.1506 17.9205 87.571C16.7727 87.9915 15.875 88.6108 15.2273 89.429C14.5795 90.2472 14.2557 91.2528 14.2557 92.446C14.2557 93.6278 14.5682 94.6278 15.1932 95.446C15.8182 96.2528 16.7045 96.8722 17.8523 97.304C19 97.7358 20.3523 97.9517 21.9091 97.9517ZM35.5114 62.8509C35.5114 65.4986 34.9489 67.7884 33.8239 69.7202C32.6875 71.6406 31.108 73.1236 29.0852 74.169C27.0511 75.2145 24.6932 75.7372 22.0114 75.7372C19.3068 75.7372 16.9432 75.2145 14.9205 74.169C12.8864 73.1236 11.3068 71.6406 10.1818 69.7202C9.04545 67.7884 8.47727 65.4986 8.47727 62.8509C8.47727 60.2031 9.04545 57.919 10.1818 55.9986C11.3068 54.0668 12.8864 52.5781 14.9205 51.5327C16.9432 50.4872 19.3068 49.9645 22.0114 49.9645C24.6932 49.9645 27.0511 50.4872 29.0852 51.5327C31.108 52.5781 32.6875 54.0668 33.8239 55.9986C34.9489 57.919 35.5114 60.2031 35.5114 62.8509ZM29.8864 62.8168C29.8864 61.6122 29.5455 60.6065 28.8636 59.7997C28.1705 58.9929 27.2273 58.3849 26.0341 57.9759C24.8409 57.5554 23.483 57.3452 21.9602 57.3452C20.4375 57.3452 19.0795 57.5554 17.8864 57.9759C16.6932 58.3849 15.75 58.9929 15.0568 59.7997C14.3636 60.6065 14.017 61.6122 14.017 62.8168C14.017 64.0327 14.3636 65.0554 15.0568 65.8849C15.75 66.7031 16.6932 67.3224 17.8864 67.7429C19.0795 68.152 20.4375 68.3565 21.9602 68.3565C23.483 68.3565 24.8409 68.152 26.0341 67.7429C27.2273 67.3224 28.1705 66.7031 28.8636 65.8849C29.5455 65.0554 29.8864 64.0327 29.8864 62.8168ZM23.8523 28.4531H8.81818V21.1918H35V28.1634H30.2443V28.4361C31.7784 29.027 33.0114 30.0099 33.9432 31.3849C34.875 32.7486 35.3409 34.4134 35.3409 36.3793C35.3409 38.1293 34.9432 39.669 34.1477 40.9986C33.3523 42.3281 32.2216 43.3679 30.7557 44.1179C29.2898 44.8565 27.5341 45.2315 25.4886 45.2429H8.81818V37.9815H24.1932C25.7386 37.9702 26.9602 37.5554 27.858 36.7372C28.7557 35.919 29.2045 34.8224 29.2045 33.4474C29.2045 32.5724 29.0057 31.7543 28.608 30.9929C28.1989 30.2315 27.5966 29.6179 26.8011 29.152C26.0057 28.6747 25.0227 28.4418 23.8523 28.4531ZM8.81818 1.45739H14.2727V17.2244H8.81818V1.45739ZM2.54545 13.6449L2.54545 6.38352H26.9545C27.625 6.38352 28.1477 6.28125 28.5227 6.0767C28.8864 5.87216 29.142 5.58807 29.2898 5.22443C29.4375 4.84943 29.5114 4.41761 29.5114 3.92898C29.5114 3.58807 29.483 3.24716 29.4261 2.90625C29.358 2.56534 29.3068 2.30398 29.2727 2.12216L34.6761 0.980114C34.7898 1.34375 34.9205 1.85511 35.0682 2.5142C35.2273 3.1733 35.3239 3.97443 35.358 4.91761C35.4261 6.66761 35.1932 8.2017 34.6591 9.51989C34.125 10.8267 33.2955 11.8437 32.1705 12.571C31.0455 13.2983 29.625 13.6562 27.9091 13.6449H2.54545Z" fill="white" fill-opacity="0.08"/>
</svg>
