<svg width="30" height="30" viewBox="0 0 30 30" fill="none" xmlns="http://www.w3.org/2000/svg">
<path d="M11.2676 15.8127H8.55469V18.7826H11.2676C11.4634 18.7838 11.6575 18.7463 11.8387 18.6722C12.02 18.5982 12.1848 18.489 12.3237 18.351C12.4625 18.213 12.5728 18.0488 12.648 17.8681C12.7232 17.6873 12.7619 17.4934 12.7619 17.2976C12.7619 17.1018 12.7232 16.908 12.648 16.7272C12.5728 16.5464 12.4625 16.3823 12.3237 16.2443C12.1848 16.1063 12.02 15.9971 11.8387 15.923C11.6575 15.8489 11.4634 15.8114 11.2676 15.8127Z" fill="white"/>
<path d="M12.5156 12.5965C12.5156 12.2247 12.3679 11.8682 12.1051 11.6053C11.8422 11.3424 11.4857 11.1947 11.1139 11.1946L11.108 11.1914L11.1067 11.1946H8.55469V13.9983H11.1139C11.4857 13.9983 11.8422 13.8506 12.105 13.5877C12.3679 13.3248 12.5156 12.9682 12.5156 12.5965Z" fill="white"/>
<path d="M19.6615 14.1956C19.2234 14.1956 18.8006 14.3562 18.473 14.647C18.1455 14.9378 17.9358 15.3385 17.8838 15.7734H21.4392C21.3872 15.3385 21.1775 14.9377 20.8499 14.647C20.5223 14.3562 20.0995 14.1956 19.6615 14.1956Z" fill="white"/>
<path d="M15 0C6.71572 0 0 6.71572 0 15C0 23.2843 6.71572 30 15 30C23.2843 30 30 23.2843 30 15C30 6.71572 23.2843 0 15 0ZM11.9147 20.4802H6.36V9.26367H11.7448C12.3847 9.26381 13.0061 9.47907 13.509 9.87487C14.0119 10.2707 14.3671 10.824 14.5176 11.446C14.6681 12.068 14.6052 12.7226 14.3389 13.3045C14.0726 13.8865 13.6185 14.362 13.0494 14.6547C13.6993 14.9182 14.2375 15.3995 14.5717 16.0161C14.9058 16.6327 15.0152 17.3464 14.8811 18.0348C14.747 18.7232 14.3777 19.3436 13.8365 19.7897C13.2953 20.2358 12.6159 20.4799 11.9145 20.4801L11.9147 20.4802ZM16.8541 9.91834H22.2957V11.2543H16.8541V9.91834ZM23.4953 17.1174H17.8443C17.8434 17.1413 17.8429 17.1653 17.8429 17.1894C17.8429 17.5951 17.9765 17.9896 18.223 18.3118C18.4696 18.634 18.8154 18.866 19.207 18.972C19.5986 19.078 20.0143 19.0521 20.3897 18.8983C20.7651 18.7445 21.0795 18.4714 21.2841 18.1211L21.2879 18.1232H23.4471C22.9194 19.9201 21.3443 20.7275 19.6267 20.7275C17.3526 20.7275 15.6607 18.8521 15.6607 16.5387C15.6607 14.2253 17.3526 12.3499 19.6267 12.3499C21.9009 12.3499 23.899 14.303 23.4953 17.1174Z" fill="white"/>
</svg>
