<svg width="105" height="31" viewBox="0 0 105 31" fill="none" xmlns="http://www.w3.org/2000/svg">
<path d="M0.1875 19V0.119999H1.1475V19H0.1875ZM4.0275 19V0.119999H4.9875V19H4.0275ZM7.8675 19V0.119999H9.7875V19H7.8675ZM5.8835 29.336C5.32883 29.336 4.83817 29.1973 4.4115 28.92C3.9635 28.6427 3.6115 28.2267 3.3555 27.672C3.0995 27.096 2.9715 26.3813 2.9715 25.528C2.9715 24.632 3.11017 23.896 3.3875 23.32C3.66483 22.7653 4.01683 22.36 4.4435 22.104C4.87017 21.8693 5.32883 21.752 5.8195 21.752C6.35283 21.752 6.8115 21.88 7.1955 22.136C7.5795 22.392 7.8675 22.744 8.0595 23.192L7.3555 23.544L7.2595 23.576L7.2275 23.512V23.416C7.2275 23.3307 7.17417 23.2133 7.0675 23.064C6.89683 22.8293 6.70483 22.6587 6.4915 22.552C6.27817 22.4453 6.05417 22.392 5.8195 22.392C5.1795 22.392 4.67817 22.6693 4.3155 23.224C3.97417 23.7573 3.8035 24.5147 3.8035 25.496C3.8035 26.0933 3.88883 26.6373 4.0595 27.128C4.2515 27.5973 4.49683 27.96 4.7955 28.216C5.1155 28.472 5.4675 28.6 5.8515 28.6C6.15017 28.6 6.4275 28.5253 6.6835 28.376C6.96083 28.2053 7.18483 27.9813 7.3555 27.704L7.9635 28.12C7.7075 28.5253 7.4195 28.824 7.0995 29.016C6.75817 29.2293 6.35283 29.336 5.8835 29.336ZM10.75 19V0.119999H12.67V19H10.75ZM15.55 19V0.119999H16.51V19H15.55ZM17.47 19V0.119999H18.43V19H17.47ZM13.662 21.784H14.622V21.88C14.5793 21.9227 14.5473 21.976 14.526 22.04C14.526 22.0827 14.526 22.1787 14.526 22.328V24.952H17.406V21.784H18.398V21.88C18.3553 21.9227 18.3233 21.976 18.302 22.04C18.302 22.0827 18.302 22.1787 18.302 22.328V29.208H17.406V25.688H14.526V29.208H13.662V21.784ZM21.3125 19V0.119999H22.2725V19H21.3125ZM23.2325 19V0.119999H24.1925V19H23.2325ZM27.0725 19V0.119999H28.9925V19H27.0725ZM27.7765 27.032H25.3765L24.6405 29.208H23.8085L26.5285 21.656H26.6245L29.3765 29.208H28.5125L27.7765 27.032ZM27.5525 26.392L26.5925 23.576L25.6005 26.392H27.5525ZM31.875 19V0.119999H33.795V19H31.875ZM34.755 19V0.119999H37.635V19H34.755ZM40.515 19V0.119999H41.475V19H40.515ZM36.643 22.52H34.563V21.784H39.683V22.52H37.507V29.208H36.643V22.52ZM42.4375 19V0.119999H44.3575V19H42.4375ZM47.2375 19V0.119999H48.1975V19H47.2375ZM49.1575 19V0.119999H50.1175V19H49.1575ZM45.3495 21.784H46.3095V21.88C46.2668 21.9227 46.2348 21.976 46.2135 22.04C46.2135 22.0827 46.2135 22.1787 46.2135 22.328V24.952H49.0935V21.784H50.0855V21.88C50.0428 21.9227 50.0108 21.976 49.9895 22.04C49.9895 22.0827 49.9895 22.1787 49.9895 22.328V29.208H49.0935V25.688H46.2135V29.208H45.3495V21.784ZM53 19V0.119999H54.92V19H53ZM55.88 19V0.119999H58.76V19H55.88ZM59.72 19V0.119999H62.6V19H59.72ZM58.28 29.336C57.512 29.336 56.9253 29.1013 56.52 28.632C56.1147 28.1627 55.912 27.5013 55.912 26.648V21.784H56.84V21.88C56.776 21.9227 56.744 21.976 56.744 22.04C56.7227 22.0827 56.712 22.1787 56.712 22.328V26.648C56.712 27.288 56.84 27.7787 57.096 28.12C57.3307 28.4613 57.736 28.632 58.312 28.632C58.8667 28.632 59.272 28.4613 59.528 28.12C59.784 27.7787 59.912 27.2773 59.912 26.616V21.784H60.712V26.616C60.712 27.5333 60.4987 28.216 60.072 28.664C59.6453 29.112 59.048 29.336 58.28 29.336ZM63.5625 19V0.119999H64.5225V19H63.5625ZM65.4825 19V0.119999H68.3625V19H65.4825ZM69.3225 19V0.119999H71.2425V19H69.3225ZM66.3465 21.784H67.0185L68.8425 25.432L70.6985 21.784H71.3385V29.208H70.5385V23.608L68.9385 26.616H68.6185L67.1145 23.64V29.208H66.3465V21.784ZM74.125 19V0.119999H75.085V19H74.125ZM76.045 19V0.119999H77.005V19H76.045ZM78.925 19V0.119999H80.845V19H78.925ZM76.845 29.432H81.965V30.168H76.845V29.432ZM84.6875 19V0.119999H86.6075V19H84.6875ZM87.5675 19V0.119999H90.4475V19H87.5675ZM91.4075 19V0.119999H92.3675V19H91.4075ZM89.9355 29.336C88.9755 29.336 88.1968 29.016 87.5995 28.376L88.0475 27.64L88.0795 27.544L88.1755 27.576C88.1755 27.5973 88.1862 27.64 88.2075 27.704C88.2075 27.7467 88.2288 27.8 88.2715 27.864C88.2928 27.9067 88.3355 27.9493 88.3995 27.992C88.8475 28.376 89.4022 28.568 90.0635 28.568C90.4902 28.568 90.8528 28.4507 91.1515 28.216C91.4502 27.96 91.5995 27.6613 91.5995 27.32C91.5995 27.0853 91.5462 26.8827 91.4395 26.712C91.3542 26.5627 91.1942 26.4133 90.9595 26.264C90.7248 26.1147 90.3622 25.9333 89.8715 25.72C89.1462 25.4427 88.6235 25.1227 88.3035 24.76C88.0048 24.3973 87.8555 23.992 87.8555 23.544C87.8555 22.9893 88.0582 22.5413 88.4635 22.2C88.8688 21.8587 89.4128 21.688 90.0955 21.688C90.5008 21.688 90.8848 21.7733 91.2475 21.944C91.5888 22.1147 91.8982 22.3387 92.1755 22.616L91.6315 23.352L91.5675 23.288C91.5675 23.2667 91.5568 23.2347 91.5355 23.192C91.5355 23.128 91.5142 23.0747 91.4715 23.032C91.4502 22.968 91.4075 22.9147 91.3435 22.872C91.1728 22.7013 90.9702 22.5733 90.7355 22.488C90.5222 22.424 90.2662 22.392 89.9675 22.392C89.5835 22.392 89.2848 22.4987 89.0715 22.712C88.8368 22.9253 88.7195 23.1813 88.7195 23.48C88.7195 23.7147 88.7622 23.9173 88.8475 24.088C88.9542 24.2587 89.1355 24.4187 89.3915 24.568C89.6475 24.7387 90.0315 24.92 90.5435 25.112C91.2475 25.4107 91.7382 25.7093 92.0155 26.008C92.2715 26.328 92.3995 26.7227 92.3995 27.192C92.3995 27.5547 92.3142 27.896 92.1435 28.216C91.9515 28.536 91.6742 28.8027 91.3115 29.016C90.9275 29.2293 90.4688 29.336 89.9355 29.336ZM95.25 19V0.119999H98.13V19H95.25ZM99.09 19V0.119999H101.97V19H99.09ZM102.93 19V0.119999H104.85V19H102.93ZM98.258 21.784H100.626C101.415 21.784 102.002 21.9867 102.386 22.392C102.791 22.776 102.994 23.2773 102.994 23.896C102.994 24.4933 102.802 24.984 102.418 25.368C102.034 25.752 101.458 25.944 100.69 25.944H99.122V29.208H98.258V21.784ZM100.594 25.208C101.127 25.208 101.511 25.0907 101.746 24.856C102.002 24.6427 102.13 24.3333 102.13 23.928C102.13 23.5227 102.002 23.2027 101.746 22.968C101.49 22.712 101.117 22.584 100.626 22.584H99.122V25.208H100.594Z" fill="white"/>
</svg>
