<svg width="46" height="50" viewBox="0 0 46 50" fill="none" xmlns="http://www.w3.org/2000/svg">
<path d="M20.4806 0.113453C15.0479 0.720459 9.96271 3.20204 6.21286 7.07617C3.21297 10.2005 1.29232 13.8425 0.322844 18.2344C-0.0612871 20.0197 -0.116163 24.2866 0.231384 26.179C0.926479 30.071 3.17639 34.6771 5.57264 37.1587L6.08481 37.6943L4.80437 42.3361C3.98124 45.3533 3.56052 47.1564 3.63369 47.4956C3.78002 48.299 4.40195 49.1381 5.07875 49.4595C6.41407 50.0665 6.72503 49.9594 12.0663 46.96L17.0417 44.1928L18.5599 44.5142C20.6818 44.9605 25.1816 44.9605 27.3218 44.5142C31.9314 43.5501 35.791 41.5505 39.0103 38.462C42.4126 35.1948 44.8089 30.7673 45.632 26.179C45.9796 24.2866 45.9247 20.0197 45.5406 18.2344C44.1138 11.718 40.3274 6.48702 34.6203 3.13063C30.6326 0.791871 25.0719 -0.386435 20.4806 0.113453ZM14.9747 20.1089C17.5356 21.323 16.6393 25.1078 13.7674 25.1078C11.4809 25.1078 10.2554 22.5191 11.7187 20.8052C12.6333 19.7519 13.7308 19.5198 14.9747 20.1089ZM24.3768 20.2518C25.584 21.1266 25.9682 22.3941 25.3828 23.6082C24.5414 25.3221 21.9805 25.6077 20.8098 24.1259C19.9684 23.0547 19.9867 21.8228 20.8647 20.8052C21.7976 19.734 23.3158 19.4841 24.3768 20.2518ZM33.5228 20.2339C35.608 21.7693 34.9678 24.7329 32.4618 25.0543C30.5595 25.3042 28.9498 23.6082 29.4071 21.8228C29.5534 21.2158 30.3948 20.2875 31.0716 20.0018C31.7667 19.6805 32.9008 19.8054 33.5228 20.2339Z" fill="white"/>
</svg>
