<svg width="191" height="93" viewBox="0 0 191 93" fill="none" xmlns="http://www.w3.org/2000/svg">
<path d="M75.1522 29.42C75.1522 28.3 75.3722 27.3067 75.8122 26.44C76.2655 25.5733 76.8722 24.9067 77.6322 24.44C78.4055 23.9733 79.2655 23.74 80.2122 23.74C81.0389 23.74 81.7589 23.9067 82.3722 24.24C82.9989 24.5733 83.4989 24.9933 83.8722 25.5V23.92H86.6922V35H83.8722V33.38C83.5122 33.9 83.0122 34.3333 82.3722 34.68C81.7455 35.0133 81.0189 35.18 80.1922 35.18C79.2589 35.18 78.4055 34.94 77.6322 34.46C76.8722 33.98 76.2655 33.3067 75.8122 32.44C75.3722 31.56 75.1522 30.5533 75.1522 29.42ZM83.8722 29.46C83.8722 28.78 83.7389 28.2 83.4722 27.72C83.2055 27.2267 82.8455 26.8533 82.3922 26.6C81.9389 26.3333 81.4522 26.2 80.9322 26.2C80.4122 26.2 79.9322 26.3267 79.4922 26.58C79.0522 26.8333 78.6922 27.2067 78.4122 27.7C78.1455 28.18 78.0122 28.7533 78.0122 29.42C78.0122 30.0867 78.1455 30.6733 78.4122 31.18C78.6922 31.6733 79.0522 32.0533 79.4922 32.32C79.9455 32.5867 80.4255 32.72 80.9322 32.72C81.4522 32.72 81.9389 32.5933 82.3922 32.34C82.8455 32.0733 83.2055 31.7 83.4722 31.22C83.7389 30.7267 83.8722 30.14 83.8722 29.46ZM95.5669 23.76C96.8869 23.76 97.9535 24.18 98.7669 25.02C99.5802 25.8467 99.9869 27.0067 99.9869 28.5V35H97.1869V28.88C97.1869 28 96.9669 27.3267 96.5269 26.86C96.0869 26.38 95.4869 26.14 94.7269 26.14C93.9535 26.14 93.3402 26.38 92.8869 26.86C92.4469 27.3267 92.2269 28 92.2269 28.88V35H89.4269V23.92H92.2269V25.3C92.6002 24.82 93.0735 24.4467 93.6469 24.18C94.2335 23.9 94.8735 23.76 95.5669 23.76ZM113.25 23.92L106.39 40.24H103.41L105.81 34.72L101.37 23.92H104.51L107.37 31.66L110.27 23.92H113.25ZM119.679 35.18C118.612 35.18 117.652 34.9467 116.799 34.48C115.946 34 115.272 33.3267 114.779 32.46C114.299 31.5933 114.059 30.5933 114.059 29.46C114.059 28.3267 114.306 27.3267 114.799 26.46C115.306 25.5933 115.992 24.9267 116.859 24.46C117.726 23.98 118.692 23.74 119.759 23.74C120.826 23.74 121.792 23.98 122.659 24.46C123.526 24.9267 124.206 25.5933 124.699 26.46C125.206 27.3267 125.459 28.3267 125.459 29.46C125.459 30.5933 125.199 31.5933 124.679 32.46C124.172 33.3267 123.479 34 122.599 34.48C121.732 34.9467 120.759 35.18 119.679 35.18ZM119.679 32.74C120.186 32.74 120.659 32.62 121.099 32.38C121.552 32.1267 121.912 31.7533 122.179 31.26C122.446 30.7667 122.579 30.1667 122.579 29.46C122.579 28.4067 122.299 27.6 121.739 27.04C121.192 26.4667 120.519 26.18 119.719 26.18C118.919 26.18 118.246 26.4667 117.699 27.04C117.166 27.6 116.899 28.4067 116.899 29.46C116.899 30.5133 117.159 31.3267 117.679 31.9C118.212 32.46 118.879 32.74 119.679 32.74ZM133.653 23.76C134.973 23.76 136.039 24.18 136.853 25.02C137.666 25.8467 138.073 27.0067 138.073 28.5V35H135.273V28.88C135.273 28 135.053 27.3267 134.613 26.86C134.173 26.38 133.573 26.14 132.813 26.14C132.039 26.14 131.426 26.38 130.973 26.86C130.533 27.3267 130.313 28 130.313 28.88V35H127.513V23.92H130.313V25.3C130.686 24.82 131.159 24.4467 131.733 24.18C132.319 23.9 132.959 23.76 133.653 23.76ZM151.035 29.22C151.035 29.62 151.009 29.98 150.955 30.3H142.855C142.922 31.1 143.202 31.7267 143.695 32.18C144.189 32.6333 144.795 32.86 145.515 32.86C146.555 32.86 147.295 32.4133 147.735 31.52H150.755C150.435 32.5867 149.822 33.4667 148.915 34.16C148.009 34.84 146.895 35.18 145.575 35.18C144.509 35.18 143.549 34.9467 142.695 34.48C141.855 34 141.195 33.3267 140.715 32.46C140.249 31.5933 140.015 30.5933 140.015 29.46C140.015 28.3133 140.249 27.3067 140.715 26.44C141.182 25.5733 141.835 24.9067 142.675 24.44C143.515 23.9733 144.482 23.74 145.575 23.74C146.629 23.74 147.569 23.9667 148.395 24.42C149.235 24.8733 149.882 25.52 150.335 26.36C150.802 27.1867 151.035 28.14 151.035 29.22ZM148.135 28.42C148.122 27.7 147.862 27.1267 147.355 26.7C146.849 26.26 146.229 26.04 145.495 26.04C144.802 26.04 144.215 26.2533 143.735 26.68C143.269 27.0933 142.982 27.6733 142.875 28.42H148.135ZM152.359 29.46C152.359 28.3133 152.593 27.3133 153.059 26.46C153.526 25.5933 154.173 24.9267 154.999 24.46C155.826 23.98 156.773 23.74 157.839 23.74C159.213 23.74 160.346 24.0867 161.239 24.78C162.146 25.46 162.753 26.42 163.059 27.66H160.039C159.879 27.18 159.606 26.8067 159.219 26.54C158.846 26.26 158.379 26.12 157.819 26.12C157.019 26.12 156.386 26.4133 155.919 27C155.453 27.5733 155.219 28.3933 155.219 29.46C155.219 30.5133 155.453 31.3333 155.919 31.92C156.386 32.4933 157.019 32.78 157.819 32.78C158.953 32.78 159.693 32.2733 160.039 31.26H163.059C162.753 32.46 162.146 33.4133 161.239 34.12C160.333 34.8267 159.199 35.18 157.839 35.18C156.773 35.18 155.826 34.9467 154.999 34.48C154.173 34 153.526 33.3333 153.059 32.48C152.593 31.6133 152.359 30.6067 152.359 29.46ZM164.39 29.42C164.39 28.3 164.61 27.3067 165.05 26.44C165.504 25.5733 166.11 24.9067 166.87 24.44C167.644 23.9733 168.504 23.74 169.45 23.74C170.277 23.74 170.997 23.9067 171.61 24.24C172.237 24.5733 172.737 24.9933 173.11 25.5V23.92H175.93V35H173.11V33.38C172.75 33.9 172.25 34.3333 171.61 34.68C170.984 35.0133 170.257 35.18 169.43 35.18C168.497 35.18 167.644 34.94 166.87 34.46C166.11 33.98 165.504 33.3067 165.05 32.44C164.61 31.56 164.39 30.5533 164.39 29.42ZM173.11 29.46C173.11 28.78 172.977 28.2 172.71 27.72C172.444 27.2267 172.084 26.8533 171.63 26.6C171.177 26.3333 170.69 26.2 170.17 26.2C169.65 26.2 169.17 26.3267 168.73 26.58C168.29 26.8333 167.93 27.2067 167.65 27.7C167.384 28.18 167.25 28.7533 167.25 29.42C167.25 30.0867 167.384 30.6733 167.65 31.18C167.93 31.6733 168.29 32.0533 168.73 32.32C169.184 32.5867 169.664 32.72 170.17 32.72C170.69 32.72 171.177 32.5933 171.63 32.34C172.084 32.0733 172.444 31.7 172.71 31.22C172.977 30.7267 173.11 30.14 173.11 29.46ZM184.805 23.76C186.125 23.76 187.192 24.18 188.005 25.02C188.818 25.8467 189.225 27.0067 189.225 28.5V35H186.425V28.88C186.425 28 186.205 27.3267 185.765 26.86C185.325 26.38 184.725 26.14 183.965 26.14C183.192 26.14 182.578 26.38 182.125 26.86C181.685 27.3267 181.465 28 181.465 28.88V35H178.665V23.92H181.465V25.3C181.838 24.82 182.312 24.4467 182.885 24.18C183.472 23.9 184.112 23.76 184.805 23.76ZM81.3609 69C81.3609 66.2533 81.9743 63.8 83.2009 61.64C84.4543 59.4533 86.1476 57.76 88.2809 56.56C90.4409 55.3333 92.8543 54.72 95.5209 54.72C98.6409 54.72 101.374 55.52 103.721 57.12C106.068 58.72 107.708 60.9333 108.641 63.76H102.201C101.561 62.4267 100.654 61.4267 99.4809 60.76C98.3343 60.0933 97.0009 59.76 95.4809 59.76C93.8543 59.76 92.4009 60.1467 91.1209 60.92C89.8676 61.6667 88.8809 62.7333 88.1609 64.12C87.4676 65.5067 87.1209 67.1333 87.1209 69C87.1209 70.84 87.4676 72.4667 88.1609 73.88C88.8809 75.2667 89.8676 76.3467 91.1209 77.12C92.4009 77.8667 93.8543 78.24 95.4809 78.24C97.0009 78.24 98.3343 77.9067 99.4809 77.24C100.654 76.5467 101.561 75.5333 102.201 74.2H108.641C107.708 77.0533 106.068 79.28 103.721 80.88C101.401 82.4533 98.6676 83.24 95.5209 83.24C92.8543 83.24 90.4409 82.64 88.2809 81.44C86.1476 80.2133 84.4543 78.52 83.2009 76.36C81.9743 74.2 81.3609 71.7467 81.3609 69ZM123.264 83.36C121.131 83.36 119.211 82.8933 117.504 81.96C115.797 81 114.451 79.6533 113.464 77.92C112.504 76.1867 112.024 74.1867 112.024 71.92C112.024 69.6533 112.517 67.6533 113.504 65.92C114.517 64.1867 115.891 62.8533 117.624 61.92C119.357 60.96 121.291 60.48 123.424 60.48C125.557 60.48 127.491 60.96 129.224 61.92C130.957 62.8533 132.317 64.1867 133.304 65.92C134.317 67.6533 134.824 69.6533 134.824 71.92C134.824 74.1867 134.304 76.1867 133.264 77.92C132.251 79.6533 130.864 81 129.104 81.96C127.371 82.8933 125.424 83.36 123.264 83.36ZM123.264 78.48C124.277 78.48 125.224 78.24 126.104 77.76C127.011 77.2533 127.731 76.5067 128.264 75.52C128.797 74.5333 129.064 73.3333 129.064 71.92C129.064 69.8133 128.504 68.2 127.384 67.08C126.291 65.9333 124.944 65.36 123.344 65.36C121.744 65.36 120.397 65.9333 119.304 67.08C118.237 68.2 117.704 69.8133 117.704 71.92C117.704 74.0267 118.224 75.6533 119.264 76.8C120.331 77.92 121.664 78.48 123.264 78.48ZM148.772 83.36C146.639 83.36 144.719 82.8933 143.012 81.96C141.305 81 139.959 79.6533 138.972 77.92C138.012 76.1867 137.532 74.1867 137.532 71.92C137.532 69.6533 138.025 67.6533 139.012 65.92C140.025 64.1867 141.399 62.8533 143.132 61.92C144.865 60.96 146.799 60.48 148.932 60.48C151.065 60.48 152.999 60.96 154.732 61.92C156.465 62.8533 157.825 64.1867 158.812 65.92C159.825 67.6533 160.332 69.6533 160.332 71.92C160.332 74.1867 159.812 76.1867 158.772 77.92C157.759 79.6533 156.372 81 154.612 81.96C152.879 82.8933 150.932 83.36 148.772 83.36ZM148.772 78.48C149.785 78.48 150.732 78.24 151.612 77.76C152.519 77.2533 153.239 76.5067 153.772 75.52C154.305 74.5333 154.572 73.3333 154.572 71.92C154.572 69.8133 154.012 68.2 152.892 67.08C151.799 65.9333 150.452 65.36 148.852 65.36C147.252 65.36 145.905 65.9333 144.812 67.08C143.745 68.2 143.212 69.8133 143.212 71.92C143.212 74.0267 143.732 75.6533 144.772 76.8C145.839 77.92 147.172 78.48 148.772 78.48ZM177.56 83L170.04 73.56V83H164.44V53.4H170.04V70.24L177.48 60.84H184.76L175 71.96L184.84 83H177.56Z" fill="white"/>
<path d="M1.60729 28.1499C0.809025 28.1499 0.115907 27.5554 0.0129051 26.7442C-0.0986804 25.8622 0.525769 25.0553 1.40558 24.9437C1.9678 24.8729 2.52787 24.7828 3.09009 24.6926C4.39693 24.4823 5.75098 24.2677 7.14365 24.2634C23.5446 24.227 39.9412 24.2291 56.3443 24.2334H69.462C70.3504 24.2334 71.0714 24.9545 71.0714 25.8429C71.0714 26.7314 70.3504 27.4524 69.462 27.4524H56.3421C39.9412 27.4481 23.5467 27.4481 7.15009 27.4825C6.00848 27.4846 4.83683 27.6713 3.59866 27.8709C3.00211 27.9653 2.4077 28.0619 1.81115 28.137C1.74463 28.1456 1.67596 28.1499 1.60729 28.1499Z" fill="white"/>
<path d="M54.9217 87.0001C54.147 87.0001 53.4625 86.4379 53.3359 85.6481L48.5012 55.8464C46.5978 55.8657 44.6794 55.9193 42.7546 55.973C37.3899 56.1189 31.8407 56.2799 26.3794 55.679C19.4697 54.9257 13.3282 51.432 9.08365 45.8459C4.8391 40.2556 3.05159 33.1222 4.17817 26.2764C4.32195 25.3987 5.15026 24.8021 6.02792 24.9502C6.90558 25.0939 7.49784 25.9245 7.35407 26.8C6.36911 32.7767 7.9356 39.0087 11.6458 43.8995C15.3496 48.7753 20.7057 51.8226 26.727 52.4814C31.9694 53.0544 37.4071 52.902 42.6645 52.7561C45.0829 52.6896 47.4884 52.6209 49.8682 52.6209C50.6578 52.6209 51.3317 53.1939 51.4561 53.9729L56.5118 85.1331C56.6534 86.0108 56.059 86.837 55.1814 86.9787C55.0955 86.9958 55.0075 87.0001 54.9217 87.0001Z" fill="white"/>
<path d="M19.6111 71.7698C18.7399 71.7698 18.0232 71.0724 18.0017 70.1968C17.9824 69.3083 18.6863 68.5723 19.5747 68.5508L50.7328 67.8598C51.6426 67.922 52.3572 68.5444 52.3787 69.4328C52.398 70.3213 51.6941 71.0573 50.8057 71.0788L19.6476 71.7698C19.6347 71.7698 19.624 71.7698 19.6111 71.7698Z" fill="white"/>
<path d="M33.4586 50.9964C32.7376 50.9964 32.0809 50.5071 31.8985 49.7774C31.6818 48.9147 32.2075 48.0392 33.0702 47.8267C33.3212 47.7645 33.5723 47.6765 33.8277 47.5906C34.5744 47.3353 35.4221 47.052 36.377 47.1357C46.645 48.0971 53.8315 43.5197 59.0138 32.7617C59.4001 31.9612 60.3593 31.6243 61.1618 32.0106C61.9623 32.3968 62.2991 33.3583 61.9129 34.1587C56.1469 46.1228 47.7072 51.4106 36.0765 50.3418C35.804 50.3118 35.3062 50.4856 34.862 50.638C34.5229 50.7539 34.1839 50.8655 33.8491 50.9513C33.7182 50.9814 33.5873 50.9964 33.4586 50.9964Z" fill="white"/>
<path d="M51.4624 54.4579C50.8873 54.4579 50.3315 54.1489 50.0419 53.6081C49.6234 52.8248 49.9195 51.8483 50.7028 51.4299C60.327 46.288 64.357 38.2061 63.018 26.7249C62.915 25.8408 63.548 25.0424 64.43 24.9394C65.3269 24.8407 66.1123 25.4695 66.2153 26.3515C67.7024 39.1182 62.9944 48.5113 52.2199 54.2669C51.9774 54.3978 51.7199 54.4579 51.4624 54.4579Z" fill="white"/>
<path d="M28.6131 21.2247C28.2998 21.2247 27.9843 21.1345 27.7054 20.9436C22.2141 17.188 24.3342 12.8638 25.7354 10.0032C26.3599 8.73057 26.9522 7.51807 27.0208 6.4515L24.0123 3.44278C23.3836 2.81615 23.3814 1.79464 24.0102 1.16586C24.6368 0.539222 25.656 0.53493 26.2869 1.16371L29.7504 4.62738C30.0079 4.88491 30.1688 5.21969 30.2096 5.58236C30.4499 7.69834 29.4821 9.67482 28.6259 11.4195C27.0358 14.6686 26.4607 16.1923 29.5229 18.2868C30.2568 18.789 30.4456 19.7911 29.9435 20.5229C29.6302 20.98 29.1259 21.2247 28.6131 21.2247Z" fill="white"/>
<path d="M36.922 19.8384C36.5958 19.8384 36.2675 19.7396 35.9821 19.5358C34.0036 18.113 32.8513 16.467 32.5551 14.645C32.2611 12.8337 32.8234 10.9281 34.2311 8.9795C35.1259 7.7391 35.4971 6.6339 35.3362 5.6918C35.1752 4.75185 34.4607 3.81618 33.2118 2.917C32.4908 2.39767 32.3277 1.39118 32.847 0.670123C33.3663 -0.0530852 34.3748 -0.216183 35.0937 0.3053C37.0529 1.71738 38.2009 3.34621 38.5099 5.14886C38.8232 6.97512 38.261 8.89795 36.8426 10.8637C35.9542 12.0934 35.5808 13.1921 35.7332 14.1299C35.8877 15.0785 36.6044 16.0184 37.8619 16.9241C38.5829 17.4434 38.7481 18.4499 38.2288 19.1709C37.9134 19.6044 37.4198 19.8384 36.922 19.8384Z" fill="white"/>
<path d="M16.8408 87.0001C16.0683 87.0001 15.3859 86.4421 15.255 85.6546C15.1885 85.2554 15.0855 84.8541 14.9847 84.4485C14.7229 83.3991 14.4246 82.2102 14.6242 80.987C15.7615 73.9673 17.0168 66.8554 18.2314 59.9753L19.4116 53.2626C19.5661 52.387 20.3987 51.8183 21.2742 51.9535C22.1497 52.108 22.7356 52.9428 22.5811 53.8162L21.4008 60.5354C20.1884 67.4027 18.9352 74.5081 17.8001 81.5042C17.7078 82.0729 17.9009 82.8497 18.1069 83.6695C18.2292 84.1588 18.3494 84.6459 18.4288 85.1288C18.5747 86.0065 17.9825 86.8349 17.1048 86.9808C17.0168 86.9958 16.9288 87.0001 16.8408 87.0001Z" fill="white"/>
<path d="M48.6898 23.2999C48.3679 23.2999 48.0417 23.2033 47.7585 23.0016C43.544 20.0057 42.0011 14.9583 44.0075 10.7264C44.8959 8.8486 45.1469 7.46656 44.7757 6.49871C44.398 5.51583 43.28 4.67888 41.147 3.78829C40.3273 3.44492 39.9389 2.50282 40.2822 1.68304C40.6256 0.863264 41.5698 0.474835 42.3873 0.818198C44.4152 1.66587 46.8594 2.94705 47.7799 5.34629C48.4838 7.17899 48.2005 9.38939 46.9151 12.1041C45.589 14.9004 46.7027 18.3039 49.6232 20.377C50.3464 20.892 50.5181 21.8964 50.0031 22.6217C49.6898 23.0638 49.1941 23.2999 48.6898 23.2999Z" fill="white"/>
</svg>
