<svg width="43" height="43" viewBox="0 0 43 43" fill="none" xmlns="http://www.w3.org/2000/svg">
<path d="M7.7398 17.6201H2.53613V20.3076H7.7398V17.6201Z" fill="white"/>
<path d="M40.4634 17.6201H35.2598V20.3076H40.4634V17.6201Z" fill="white"/>
<path d="M8.91402 4.47465L7.01367 6.375L10.8025 10.1638L12.7028 8.26347L8.91402 4.47465Z" fill="white"/>
<path d="M22.8438 0H20.1562V5.20367H22.8438V0Z" fill="white"/>
<path d="M34.0857 4.47729L30.2969 8.26611L32.1972 10.1665L35.986 6.37764L34.0857 4.47729Z" fill="white"/>
<path d="M10.8035 27.7585L7.01465 31.5474L8.915 33.4477L12.7038 29.6589L10.8035 27.7585Z" fill="white"/>
<path d="M32.1982 27.7608L30.2979 29.6611L34.0867 33.45L35.987 31.5496L32.1982 27.7608Z" fill="white"/>
<path d="M15.8193 37.3193C15.8193 38.0653 15.9663 38.804 16.2518 39.4932C16.5372 40.1824 16.9557 40.8087 17.4832 41.3362C18.0107 41.8637 18.6369 42.2821 19.3261 42.5676C20.0153 42.8531 20.754 43 21.5 43C22.246 43 22.9847 42.8531 23.6739 42.5676C24.3632 42.2821 24.9894 41.8637 25.5169 41.3362C26.0444 40.8087 26.4628 40.1824 26.7483 39.4932C27.0338 38.804 27.1807 38.0653 27.1807 37.3193V33.5938H15.8193V37.3193Z" fill="white"/>
<path d="M27.181 32.213C27.1732 31.3095 27.3558 30.4144 27.717 29.5861C28.0782 28.7578 28.6098 28.0149 29.2772 27.4058C31.0403 25.8311 32.2839 23.7584 32.8436 21.4617C33.4033 19.165 33.2528 16.7525 32.412 14.5432C31.5712 12.3339 30.0796 10.4318 28.1346 9.08844C26.1895 7.74505 23.8825 7.02362 21.5186 7.01955C19.1547 7.01547 16.8453 7.72894 14.8956 9.06562C12.9459 10.4023 11.4478 12.2992 10.5993 14.5056C9.7509 16.712 9.59209 19.124 10.1439 21.4225C10.6957 23.7211 11.9321 25.7981 13.6897 27.3789C14.3635 27.9906 14.9012 28.737 15.2681 29.5697C15.635 30.4025 15.8229 31.303 15.8196 32.213V32.25H27.181V32.213Z" fill="white"/>
</svg>
