<svg width="50" height="50" viewBox="0 0 50 50" fill="none" xmlns="http://www.w3.org/2000/svg">
<g clip-path="url(#clip0_160_21)">
<path d="M15.6279 0H20.999V2.24608H17.874V4.49219H20.999V6.73829H15.6279V0Z" fill="white"/>
<path d="M22.0732 0H27.4445V1.95312H24.3195V2.34375H27.4445V6.83594H22.0732V4.78517H25.1982V4.39454H22.0732V0Z" fill="white"/>
<path d="M28.5186 0H33.8896V1.95312H30.7646V2.34375H33.8896V6.83594H28.5186V4.78517H31.6436V4.39454H28.5186V0Z" fill="white"/>
<path fill-rule="evenodd" clip-rule="evenodd" d="M24.9817 50L10.5154 45.984L6.25 9.82617H43.75L39.4877 45.9784L24.9817 50ZM14.682 26.1932L15.0795 30.6277H30.4485L29.9337 36.379L24.9877 37.714L24.9833 37.7154L20.0445 36.3819L19.7287 32.845H15.2771L15.8984 39.8082L24.9823 42.3298L34.079 39.8079L35.1877 27.384L35.296 26.1932L36.0967 17.2173H13.8835L14.2866 21.6519H31.2367L30.8331 26.1932H14.682Z" fill="white"/>
</g>
<defs>
<clipPath id="clip0_160_21">
<rect width="50" height="50" fill="white"/>
</clipPath>
</defs>
</svg>
