<svg width="41" height="51" viewBox="0 0 41 51" fill="none" xmlns="http://www.w3.org/2000/svg">
<path d="M15.4314 8.35349C14.0811 8.71786 12.988 9.62879 12.3343 10.9577C11.9485 11.74 11.9377 11.7829 11.9377 13.0046C11.9377 14.2263 11.9485 14.2584 12.345 15.0622C13.8346 18.0843 17.7784 18.738 20.061 16.3375C20.4254 15.9517 20.8219 15.3944 21.0255 14.9657C21.347 14.2799 21.3685 14.1727 21.3685 13.0046C21.3685 11.8364 21.347 11.7293 21.0255 11.0434C20.6183 10.1861 19.7181 9.1894 18.9786 8.79288C17.8963 8.20346 16.5781 8.04271 15.4314 8.35349ZM17.7569 10.8505C18.5285 11.247 19.0644 12.0829 19.0644 12.9081C19.0644 14.6335 17.5962 15.7695 15.978 15.3087C14.274 14.805 13.6524 12.6295 14.8634 11.3649C15.6243 10.5611 16.7817 10.3575 17.7569 10.8505Z" fill="white"/>
<path d="M13.5989 18.5344C11.7878 19.0059 10.0195 20.4527 9.2265 22.1245C8.72282 23.1855 8.60493 23.6677 8.5192 24.9001C8.44418 26.004 8.5835 26.4541 9.08719 26.797C9.53729 27.0971 9.79449 27.1078 10.2553 26.8292C10.7376 26.5398 10.9197 26.0361 10.9197 25.0716C10.9197 23.3141 11.8414 21.8887 13.4918 21.1064L14.1884 20.7742H16.6532H19.1181L19.8146 21.1064C20.822 21.5887 21.4543 22.1995 21.9151 23.1319C22.2688 23.8499 22.3224 24.0535 22.3867 25.0609C22.4617 26.2933 22.6117 26.6363 23.1904 26.9256C23.4583 27.0542 23.5655 27.0542 23.9299 26.9256C24.6372 26.6684 24.7979 26.3362 24.7765 25.1573C24.7336 23.1855 24.1335 21.7173 22.8261 20.3991C21.8937 19.456 20.9828 18.9095 19.8146 18.588C19.1073 18.3844 18.7215 18.3629 16.5996 18.3736C14.8635 18.3736 14.0276 18.4165 13.5989 18.5344Z" fill="white"/>
<path d="M8.31552 33.5807C7.99401 33.8379 7.77968 34.4166 7.86541 34.7917C7.90828 34.9417 8.07975 35.1989 8.25121 35.3597L8.57272 35.6705L16.0637 35.7026C24.3906 35.7348 24.1549 35.7455 24.4871 35.0489C24.7336 34.5345 24.6157 33.9987 24.1977 33.645L23.8655 33.3664H16.2352C8.73347 33.3664 8.58343 33.3664 8.31552 33.5807Z" fill="white"/>
<path d="M8.39046 39.7857C8.17613 39.9143 7.99394 40.1501 7.91893 40.3751C7.74746 40.9002 7.94036 41.4575 8.39046 41.7361C8.71196 41.929 9.07633 41.9398 20.3718 41.9398H32.0102L32.3424 41.6611C32.9532 41.1574 32.8782 40.1929 32.2031 39.7857C31.8816 39.5928 31.4315 39.5821 20.2968 39.5821C9.07633 39.5821 8.71196 39.5928 8.39046 39.7857Z" fill="white"/>
<path d="M3.80889 0.174241C1.90131 0.688645 0.551003 2.17827 0.250934 4.08585C0.0901833 5.05036 0.0901833 45.131 0.250934 46.0955C0.551003 48.0245 1.91203 49.5034 3.85176 50.0071C4.37688 50.1464 6.59525 50.1678 20.1841 50.1678C30.4186 50.1678 36.0984 50.125 36.4735 50.0607C38.4454 49.6856 40.0101 48.0781 40.3208 46.0955C40.4709 45.1524 40.4709 14.4597 40.3208 13.9453C40.2351 13.6559 38.7455 12.102 33.5907 6.94722C29.9577 3.30353 26.8499 0.249259 26.6891 0.163525C26.2605 -0.061527 4.65552 -0.0508102 3.80889 0.174241ZM25.0173 7.33303L25.0495 12.2842L25.3924 12.9807C25.7675 13.7416 26.4212 14.4704 27.0857 14.8562C28.018 15.4027 28.436 15.4456 33.3764 15.4456H37.9632V30.717C37.9632 47.5744 38.0167 46.3634 37.2666 47.0921C36.4842 47.853 37.5023 47.8102 20.2805 47.8102C3.05872 47.8102 4.07681 47.853 3.29449 47.0921C2.54432 46.3634 2.5979 48.1531 2.5979 25.0907C2.5979 2.02824 2.54432 3.81793 3.30521 3.07848C4.04466 2.36046 3.59456 2.38189 14.8364 2.38189L24.9852 2.37117L25.0173 7.33303ZM36.2485 13.0129C36.2485 13.0558 34.5445 13.0879 32.4762 13.0665C28.2538 13.0343 28.2967 13.0343 27.7072 12.2627L27.4072 11.8769L27.375 7.9546L27.3429 4.03227L31.801 8.47972C34.2444 10.9231 36.2485 12.97 36.2485 13.0129Z" fill="white"/>
</svg>
