<svg width="56" height="56" viewBox="0 0 56 56" fill="none" xmlns="http://www.w3.org/2000/svg">
<path d="M27.9499 43.5556C27.9499 47.8213 24.4878 51.2834 20.2221 51.2834C15.9564 51.2834 12.4943 47.8213 12.4943 43.5556C12.4943 39.2899 15.9564 35.8278 20.2221 35.8278H27.9499V43.5556Z" fill="white" stroke="black" stroke-width="0.1"/>
<path d="M12.4943 27.9999C12.4943 23.7342 15.9564 20.2722 20.2221 20.2722H27.9499V35.7277H20.2221C15.9564 35.7277 12.4943 32.2657 12.4943 27.9999Z" fill="white" stroke="black" stroke-width="0.1"/>
<path d="M12.4943 12.4443C12.4943 8.17856 15.9564 4.7165 20.2221 4.7165H27.9499V20.1721H20.2221C15.9564 20.1721 12.4943 16.71 12.4943 12.4443Z" fill="white" stroke="black" stroke-width="0.1"/>
<path d="M28.05 4.7165H35.7778C40.0435 4.7165 43.5056 8.17856 43.5056 12.4443C43.5056 16.71 40.0435 20.1721 35.7778 20.1721H28.05V4.7165Z" fill="white" stroke="black" stroke-width="0.1"/>
<path d="M43.5556 27.9999C43.5556 32.2933 40.0711 35.7777 35.7778 35.7777C31.4844 35.7777 28 32.2933 28 27.9999C28 23.7066 31.4844 20.2222 35.7778 20.2222C40.0711 20.2222 43.5556 23.7066 43.5556 27.9999Z" fill="white"/>
</svg>
