<svg width="20" height="20" viewBox="0 0 20 20" fill="none" xmlns="http://www.w3.org/2000/svg">
<path d="M12.001 7.002C12.5538 7.002 13.002 6.55384 13.002 6.001C13.002 5.44816 12.5538 5 12.001 5C11.4482 5 11 5.44816 11 6.001C11 6.55384 11.4482 7.002 12.001 7.002Z" fill="white"/>
<path d="M13.125 13.125V8.125H8.125V7.813C8.125 7.296 8.545 6.875 9.063 6.875H10V5H9.063C8.31719 5.00079 7.60215 5.29742 7.07479 5.82479C6.54742 6.35215 6.25079 7.06719 6.25 7.813V8.125H5V10H6.25V13.125H5V15H9.375V13.125H8.125V10H11.268V13.125H10V15H14.375V13.125H13.125Z" fill="white"/>
<path d="M10 18C12.1217 18 14.1566 17.1571 15.6569 15.6569C17.1571 14.1566 18 12.1217 18 10C18 7.87827 17.1571 5.84344 15.6569 4.34315C14.1566 2.84285 12.1217 2 10 2C7.87827 2 5.84344 2.84285 4.34315 4.34315C2.84285 5.84344 2 7.87827 2 10C2 12.1217 2.84285 14.1566 4.34315 15.6569C5.84344 17.1571 7.87827 18 10 18ZM10 20C4.477 20 0 15.523 0 10C0 4.477 4.477 0 10 0C15.523 0 20 4.477 20 10C20 15.523 15.523 20 10 20Z" fill="white"/>
</svg>
