<svg width="29" height="29" viewBox="0 0 29 29" fill="none" xmlns="http://www.w3.org/2000/svg">
<path fill-rule="evenodd" clip-rule="evenodd" d="M14.5 0C6.49263 0 0 6.65482 0 14.8698C0 21.4404 4.1558 27.0077 9.91696 28.9756C10.642 29.1116 10.9074 28.652 10.9074 28.2571C10.9074 27.901 10.8944 26.9688 10.8879 25.7259C6.85513 26.6257 6.00067 23.7321 6.00067 23.7321C5.3404 22.0166 4.38884 21.5569 4.38884 21.5569C3.07478 20.6312 4.48594 20.6506 4.48594 20.6506C5.94241 20.7542 6.70625 22.1849 6.70625 22.1849C8.00089 24.4571 10.0982 23.8033 10.9268 23.4213C11.0563 22.4632 11.4317 21.8029 11.846 21.4339C8.62879 21.0585 5.2433 19.7832 5.2433 14.0865C5.2433 12.4616 5.80647 11.1345 6.73214 10.0987C6.58326 9.72328 6.08482 8.20847 6.87455 6.16283C6.87455 6.16283 8.09152 5.76146 10.8621 7.68411C12.0208 7.35396 13.2571 7.19212 14.4935 7.18565C15.7234 7.19212 16.9663 7.35396 18.125 7.68411C20.8955 5.76146 22.106 6.16283 22.106 6.16283C22.8958 8.20847 22.3973 9.72328 22.2484 10.0987C23.1741 11.141 23.7373 12.4681 23.7373 14.0865C23.7373 19.7961 20.3453 21.052 17.1152 21.421C17.633 21.8806 18.0991 22.7869 18.0991 24.1723C18.0991 26.1596 18.0797 27.7651 18.0797 28.2506C18.0797 28.6455 18.3386 29.1116 19.0766 28.9627C24.8507 27.0012 29 21.4339 29 14.8698C29 6.65482 22.5074 0 14.5 0Z" fill="white"/>
</svg>
