<svg width="56" height="56" viewBox="0 0 56 56" fill="none" xmlns="http://www.w3.org/2000/svg">
<path d="M7 7H49V49H7V7ZM45.5583 38.983C45.2527 37.0673 44.0043 35.4573 40.3037 33.9547C39.0157 33.3503 37.5853 32.9327 37.156 31.962C36.9973 31.3833 36.974 31.0707 37.0767 30.7277C37.3403 29.5983 38.6797 29.26 39.7297 29.5727C40.4133 29.7827 41.0433 30.3077 41.4377 31.15C43.246 29.967 43.246 29.967 44.5083 29.1807C44.0347 28.448 43.799 28.1283 43.484 27.8133C42.3803 26.5813 40.9103 25.9513 38.5233 26.005L37.2913 26.1613C36.1083 26.4507 34.979 27.083 34.2977 27.9207C32.3027 30.1793 32.879 34.1157 35.294 35.7467C37.681 37.5317 41.1763 37.9237 41.622 39.6037C42.042 41.6523 40.1007 42.308 38.1803 42.0723C36.764 41.755 35.9753 41.048 35.1097 39.7343L31.9083 41.573C32.2747 42.4107 32.6947 42.7793 33.3247 43.5143C36.3697 46.585 43.9833 46.4287 45.3483 41.755C45.3973 41.5987 45.7683 40.523 45.479 38.8687L45.5583 38.983ZM29.8387 26.3037H25.9047C25.9047 29.694 25.8883 33.0657 25.8883 36.463C25.8883 38.619 25.998 40.5977 25.6457 41.2067C25.0693 42.413 23.5783 42.259 22.904 42.0443C22.211 41.7037 21.8587 41.23 21.4503 40.5487C21.3407 40.3667 21.259 40.208 21.2287 40.208L18.0367 42.1773C18.571 43.281 19.3503 44.2283 20.356 44.8303C21.8517 45.724 23.8607 46.0133 25.9653 45.542C27.3373 45.1453 28.5203 44.331 29.134 43.071C30.03 41.4447 29.8387 39.4473 29.8317 37.2167C29.8503 33.621 29.8317 30.023 29.8317 26.4017L29.8387 26.3037Z" fill="white"/>
</svg>
