<svg width="124" height="42" viewBox="0 0 124 42" fill="none" xmlns="http://www.w3.org/2000/svg">
<path d="M0.672 25.304C0.672 23.912 0.952 22.696 1.512 21.656C2.088 20.616 2.88 19.816 3.888 19.256C4.912 18.696 6.08 18.416 7.392 18.416C9.072 18.416 10.472 18.856 11.592 19.736C12.728 20.616 13.472 21.856 13.824 23.456H9.456C9.088 22.432 8.376 21.92 7.32 21.92C6.568 21.92 5.968 22.216 5.52 22.808C5.072 23.384 4.848 24.216 4.848 25.304C4.848 26.392 5.072 27.232 5.52 27.824C5.968 28.4 6.568 28.688 7.32 28.688C8.376 28.688 9.088 28.176 9.456 27.152H13.824C13.472 28.72 12.728 29.952 11.592 30.848C10.456 31.744 9.056 32.192 7.392 32.192C6.08 32.192 4.912 31.912 3.888 31.352C2.88 30.792 2.088 29.992 1.512 28.952C0.952 27.912 0.672 26.696 0.672 25.304ZM24.2513 18.464C25.7873 18.464 27.0193 18.976 27.9473 20C28.8753 21.008 29.3393 22.4 29.3393 24.176V32H25.2593V24.728C25.2593 23.832 25.0273 23.136 24.5633 22.64C24.0993 22.144 23.4753 21.896 22.6913 21.896C21.9073 21.896 21.2833 22.144 20.8193 22.64C20.3553 23.136 20.1233 23.832 20.1233 24.728V32H16.0193V14.24H20.1233V20.408C20.5393 19.816 21.1073 19.344 21.8273 18.992C22.5473 18.64 23.3553 18.464 24.2513 18.464ZM31.3751 25.28C31.3751 23.904 31.6311 22.696 32.1431 21.656C32.6711 20.616 33.3831 19.816 34.2791 19.256C35.1751 18.696 36.1751 18.416 37.2791 18.416C38.2231 18.416 39.0471 18.608 39.7511 18.992C40.4711 19.376 41.0231 19.88 41.4071 20.504V18.608H45.5111V32H41.4071V30.104C41.0071 30.728 40.4471 31.232 39.7271 31.616C39.0231 32 38.1991 32.192 37.2551 32.192C36.1671 32.192 35.1751 31.912 34.2791 31.352C33.3831 30.776 32.6711 29.968 32.1431 28.928C31.6311 27.872 31.3751 26.656 31.3751 25.28ZM41.4071 25.304C41.4071 24.28 41.1191 23.472 40.5431 22.88C39.9831 22.288 39.2951 21.992 38.4791 21.992C37.6631 21.992 36.9671 22.288 36.3911 22.88C35.8311 23.456 35.5511 24.256 35.5511 25.28C35.5511 26.304 35.8311 27.12 36.3911 27.728C36.9671 28.32 37.6631 28.616 38.4791 28.616C39.2951 28.616 39.9831 28.32 40.5431 27.728C41.1191 27.136 41.4071 26.328 41.4071 25.304ZM55.9442 28.52V32H53.8562C52.3682 32 51.2082 31.64 50.3762 30.92C49.5442 30.184 49.1282 28.992 49.1282 27.344V22.016H47.4962V18.608H49.1282V15.344H53.2322V18.608H55.9202V22.016H53.2322V27.392C53.2322 27.792 53.3282 28.08 53.5202 28.256C53.7122 28.432 54.0322 28.52 54.4802 28.52H55.9442ZM66.4622 18.464C67.9982 18.464 69.2302 18.976 70.1582 20C71.0862 21.008 71.5502 22.4 71.5502 24.176V32H67.4702V24.728C67.4702 23.832 67.2382 23.136 66.7742 22.64C66.3102 22.144 65.6862 21.896 64.9022 21.896C64.1182 21.896 63.4942 22.144 63.0302 22.64C62.5662 23.136 62.3342 23.832 62.3342 24.728V32H58.2302V14.24H62.3342V20.408C62.7502 19.816 63.3182 19.344 64.0382 18.992C64.7582 18.64 65.5662 18.464 66.4622 18.464Z" fill="white"/>
<mask id="path-2-outside-1_2_7" maskUnits="userSpaceOnUse" x="73" y="11" width="47" height="26" fill="black">
<rect fill="white" x="73" y="11" width="47" height="26"/>
<path d="M80.36 12.536V25.976C80.36 27.32 80.6907 28.3547 81.352 29.08C82.0133 29.8053 82.984 30.168 84.264 30.168C85.544 30.168 86.5253 29.8053 87.208 29.08C87.8907 28.3547 88.232 27.32 88.232 25.976V12.536H93.704V25.944C93.704 27.9493 93.2773 29.6453 92.424 31.032C91.5707 32.4187 90.4187 33.464 88.968 34.168C87.5387 34.872 85.9387 35.224 84.168 35.224C82.3973 35.224 80.808 34.8827 79.4 34.2C78.0133 33.496 76.9147 32.4507 76.104 31.064C75.2933 29.656 74.888 27.9493 74.888 25.944V12.536H80.36ZM111.307 35L106.731 28.12L102.699 35H96.4905L103.691 23.576L96.3305 12.536H102.699L107.211 19.32L111.179 12.536H117.387L110.251 23.864L117.675 35H111.307Z"/>
</mask>
<path d="M80.36 12.536H81.36V11.536H80.36V12.536ZM81.352 29.08L80.613 29.7538L80.613 29.7538L81.352 29.08ZM87.208 29.08L87.9362 29.7654L87.9362 29.7654L87.208 29.08ZM88.232 12.536V11.536H87.232V12.536H88.232ZM93.704 12.536H94.704V11.536H93.704V12.536ZM92.424 31.032L93.2757 31.5561L93.2757 31.5561L92.424 31.032ZM88.968 34.168L88.5314 33.2683L88.5262 33.2709L88.968 34.168ZM79.4 34.2L78.9473 35.0917L78.9555 35.0958L78.9637 35.0998L79.4 34.2ZM76.104 31.064L75.2374 31.563L75.2407 31.5687L76.104 31.064ZM74.888 12.536V11.536H73.888V12.536H74.888ZM79.36 12.536V25.976H81.36V12.536H79.36ZM79.36 25.976C79.36 27.4764 79.7302 28.7855 80.613 29.7538L82.091 28.4062C81.6511 27.9238 81.36 27.1636 81.36 25.976H79.36ZM80.613 29.7538C81.5172 30.7454 82.7931 31.168 84.264 31.168V29.168C83.1749 29.168 82.5095 28.8652 82.091 28.4062L80.613 29.7538ZM84.264 31.168C85.7367 31.168 87.0143 30.7449 87.9362 29.7654L86.4798 28.3946C86.0363 28.8658 85.3513 29.168 84.264 29.168V31.168ZM87.9362 29.7654C88.847 28.7976 89.232 27.484 89.232 25.976H87.232C87.232 27.156 86.9343 27.9117 86.4798 28.3946L87.9362 29.7654ZM89.232 25.976V12.536H87.232V25.976H89.232ZM88.232 13.536H93.704V11.536H88.232V13.536ZM92.704 12.536V25.944H94.704V12.536H92.704ZM92.704 25.944C92.704 27.8071 92.3085 29.3117 91.5723 30.5079L93.2757 31.5561C94.2462 29.979 94.704 28.0916 94.704 25.944H92.704ZM91.5723 30.5079C90.8178 31.7341 89.809 32.6483 88.5314 33.2683L89.4046 35.0677C91.0283 34.2797 92.3236 33.1032 93.2757 31.5561L91.5723 30.5079ZM88.5262 33.2709C87.249 33.9 85.8027 34.224 84.168 34.224V36.224C86.0746 36.224 87.8284 35.844 89.4099 35.0651L88.5262 33.2709ZM84.168 34.224C82.5285 34.224 81.0914 33.9087 79.8363 33.3002L78.9637 35.0998C80.5246 35.8566 82.2662 36.224 84.168 36.224V34.224ZM79.8527 33.3083C78.643 32.6942 77.6844 31.786 76.9673 30.5593L75.2407 31.5687C76.1449 33.1153 77.3836 34.2978 78.9473 35.0917L79.8527 33.3083ZM76.9706 30.565C76.2656 29.3406 75.888 27.8149 75.888 25.944H73.888C73.888 28.0838 74.321 29.9714 75.2374 31.563L76.9706 30.565ZM75.888 25.944V12.536H73.888V25.944H75.888ZM74.888 13.536H80.36V11.536H74.888V13.536ZM111.307 35L110.474 35.5538L110.771 36H111.307V35ZM106.731 28.12L107.563 27.5662L106.677 26.2337L105.868 27.6144L106.731 28.12ZM102.699 35V36H103.272L103.561 35.5056L102.699 35ZM96.4905 35L95.6445 34.4668L94.6782 36H96.4905V35ZM103.691 23.576L104.536 24.1092L104.882 23.5607L104.523 23.0213L103.691 23.576ZM96.3305 12.536V11.536H94.462L95.4984 13.0907L96.3305 12.536ZM102.699 12.536L103.531 11.9822L103.234 11.536H102.699V12.536ZM107.211 19.32L106.378 19.8738L107.265 21.2076L108.074 19.8249L107.211 19.32ZM111.179 12.536V11.536H110.605L110.315 12.0311L111.179 12.536ZM117.387 12.536L118.233 13.069L119.198 11.536H117.387V12.536ZM110.251 23.864L109.404 23.331L109.059 23.8794L109.418 24.4187L110.251 23.864ZM117.675 35V36H119.543L118.507 34.4453L117.675 35ZM112.139 34.4462L107.563 27.5662L105.898 28.6738L110.474 35.5538L112.139 34.4462ZM105.868 27.6144L101.836 34.4944L103.561 35.5056L107.593 28.6256L105.868 27.6144ZM102.699 34H96.4905V36H102.699V34ZM97.3365 35.5332L104.536 24.1092L102.845 23.0428L95.6445 34.4668L97.3365 35.5332ZM104.523 23.0213L97.1626 11.9813L95.4984 13.0907L102.858 24.1307L104.523 23.0213ZM96.3305 13.536H102.699V11.536H96.3305V13.536ZM101.866 13.0898L106.378 19.8738L108.043 18.7662L103.531 11.9822L101.866 13.0898ZM108.074 19.8249L112.042 13.0409L110.315 12.0311L106.347 18.8151L108.074 19.8249ZM111.179 13.536H117.387V11.536H111.179V13.536ZM116.54 12.003L109.404 23.331L111.097 24.397L118.233 13.069L116.54 12.003ZM109.418 24.4187L116.842 35.5547L118.507 34.4453L111.083 23.3093L109.418 24.4187ZM117.675 34H111.307V36H117.675V34Z" fill="white" mask="url(#path-2-outside-1_2_7)"/>
</svg>
