<svg width="52" height="52" viewBox="0 0 52 52" fill="none" xmlns="http://www.w3.org/2000/svg">
<path d="M18.8353 20.7778C17.7099 20.7778 16.9156 20.8772 16.4854 20.9765V28.4566C17.015 28.6223 17.6438 28.6553 18.4712 28.6553C21.5162 28.6553 23.3697 27.1329 23.3697 24.5511C23.3698 22.0687 21.6486 20.7778 18.8353 20.7778Z" fill="white"/>
<path d="M6.24023 9.31836V49.9692H46.8911V9.31836H6.24023ZM25.5211 29.4164C23.8662 31.0382 21.3507 31.8326 18.4711 31.8326C17.7099 31.8326 17.048 31.7994 16.4853 31.667V40.024H12.4473V18.0969C13.9367 17.8321 15.9557 17.6334 18.6698 17.6334C21.6485 17.6334 23.7999 18.2624 25.2232 19.4538C26.547 20.5461 27.4076 22.3002 27.4076 24.3854C27.4075 26.5037 26.7457 28.2248 25.5211 29.4164ZM33.5792 40.0234C31.6264 40.0234 29.8722 39.5599 28.6807 38.898L29.5081 35.919C30.4016 36.4818 32.1559 37.1105 33.6121 37.1105C35.3996 37.1105 36.1938 36.5152 36.1938 35.4562C36.1938 34.3638 35.5319 33.8344 33.5459 33.1063C30.4016 32.0469 29.1108 30.3261 29.1108 28.4063C29.1108 25.5598 31.4607 23.3754 35.2009 23.3754C36.9882 23.3754 38.5439 23.8056 39.5036 24.3352L38.6762 27.1815C38.0143 26.7844 36.6903 26.2549 35.2671 26.2549C33.8106 26.2549 33.0163 26.983 33.0163 27.9758C33.0163 29.0019 33.7775 29.4653 35.8296 30.2267C38.7753 31.2528 40.0992 32.7422 40.1324 35.1253C40.1326 38.0709 37.8486 40.0234 33.5792 40.0234Z" fill="white"/>
<path d="M8.22754 5.5708V8.34574H47.863V47.1478H50.8232V5.5708H8.22754Z" fill="white"/>
</svg>
