<svg width="512" height="512" viewBox="0 0 512 512" fill="none" xmlns="http://www.w3.org/2000/svg">
<path d="M64 192V120C64 109.391 68.2143 99.2172 75.7157 91.7157C83.2172 84.2143 93.3913 80 104 80H179.89C187.788 80.0002 195.509 82.3384 202.08 86.72L229.92 105.28C236.491 109.662 244.212 112 252.11 112H408C418.609 112 428.783 116.214 436.284 123.716C443.786 131.217 448 141.391 448 152V192" stroke="white" stroke-width="32" stroke-linecap="round" stroke-linejoin="round"/>
<path d="M479.9 226.55L463.68 392C463.68 402.597 459.475 412.76 451.989 420.26C444.503 427.759 434.347 431.981 423.75 432H88.2501C77.6535 431.981 67.4974 427.759 60.011 420.26C52.5247 412.76 48.32 402.597 48.3201 392L32.1001 226.55C31.7481 222.147 32.3115 217.718 33.755 213.543C35.1984 209.369 37.4906 205.538 40.4872 202.292C43.4838 199.047 47.1199 196.457 51.1665 194.685C55.2132 192.914 59.5827 192 64.0001 192H448.1C452.509 192.014 456.868 192.938 460.902 194.715C464.937 196.493 468.561 199.085 471.547 202.329C474.533 205.573 476.816 209.399 478.253 213.567C479.691 217.735 480.251 222.155 479.9 226.55Z" stroke="white" stroke-width="32" stroke-linecap="round" stroke-linejoin="round"/>
</svg>
