<svg width="26" height="37" viewBox="0 0 26 37" fill="none" xmlns="http://www.w3.org/2000/svg">
<path d="M7.45106 5.8132C6.2667 5.8132 6.2667 4.01268 7.45106 4.01268H10.1106V0.900476C10.1106 0.403361 10.514 0 11.0111 0H14.9893C15.4864 0 15.8894 0.403361 15.8894 0.900476V4.01268H18.5489C19.7333 4.01268 19.7333 5.8132 18.5489 5.8132C14.8498 5.8132 11.1502 5.8132 7.45106 5.8132ZM11.9111 4.01268H14.0889V1.80052H11.9111V4.01268ZM6.76818 19.5702C5.58383 19.5702 5.58383 17.7697 6.76818 17.7697H19.2318C20.4162 17.7697 20.4162 19.5702 19.2318 19.5702H6.76818ZM6.76818 32.1237C5.58383 32.1237 5.58383 30.3232 6.76818 30.3232H19.2318C20.4162 30.3232 20.4162 32.1237 19.2318 32.1237H6.76818ZM6.76818 23.7547C5.58383 23.7547 5.58383 21.9542 6.76818 21.9542H19.2318C20.4162 21.9542 20.4162 23.7547 19.2318 23.7547H6.76818ZM6.76818 27.9392C5.58383 27.9392 5.58383 26.1387 6.76818 26.1387H19.2318C20.4162 26.1387 20.4162 27.9392 19.2318 27.9392H6.76818ZM13 8.48672C15.3443 8.48672 17.2451 10.3875 17.2451 12.7318C17.2451 15.0761 15.3443 16.9769 13 16.9769C10.6557 16.9769 8.7549 15.0761 8.7549 12.7318C8.7549 10.3875 10.6557 8.48672 13 8.48672ZM13 10.2872C11.6499 10.2872 10.5554 11.3818 10.5554 12.7318C10.5554 14.0819 11.6499 15.1764 13 15.1764C14.3501 15.1764 15.4446 14.0819 15.4446 12.7318C15.4446 11.3818 14.3501 10.2872 13 10.2872ZM21.863 5.8132C20.6787 5.8132 20.6787 4.01268 21.863 4.01268H25.1C25.5971 4.01268 26 4.4156 26 4.91272V35.1238C26 35.6214 25.5971 36.0243 25.1 36.0243H0.900041C0.402925 36.0243 0 35.6214 0 35.1238V4.91272C0 4.4156 0.402925 4.01268 0.900041 4.01268H4.13696C5.32131 4.01268 5.32131 5.8132 4.13696 5.8132H1.80052V34.2238H24.1995V5.8132H21.863Z" fill="white"/>
</svg>
