<svg width="24" height="24" viewBox="0 0 24 24" fill="none" xmlns="http://www.w3.org/2000/svg">
<path d="M21.5 21H20V9.5C20 9.36739 19.9473 9.24021 19.8536 9.14645C19.7598 9.05268 19.6326 9 19.5 9H16.5C16.3674 9 16.2402 9.05268 16.1464 9.14645C16.0527 9.24021 16 9.36739 16 9.5V21H14V13.5C14 13.3674 13.9473 13.2402 13.8536 13.1464C13.7598 13.0527 13.6326 13 13.5 13H10.5C10.3674 13 10.2402 13.0527 10.1464 13.1464C10.0527 13.2402 10 13.3674 10 13.5V21H8V14.5C8 14.3674 7.94732 14.2402 7.85355 14.1464C7.75979 14.0527 7.63261 14 7.5 14H4.5C4.36739 14 4.24021 14.0527 4.14645 14.1464C4.05268 14.2402 4 14.3674 4 14.5V21H2.5C2.36739 21 2.24021 21.0527 2.14645 21.1464C2.05268 21.2402 2 21.3674 2 21.5C2 21.6326 2.05268 21.7598 2.14645 21.8536C2.24021 21.9473 2.36739 22 2.5 22H21.5C21.6326 22 21.7598 21.9473 21.8536 21.8536C21.9473 21.7598 22 21.6326 22 21.5C22 21.3674 21.9473 21.2402 21.8536 21.1464C21.7598 21.0527 21.6326 21 21.5 21ZM7 21H5V15H7V21ZM13 21H11V14H13V21ZM19 21H17V10H19V21Z" fill="white"/>
<path d="M2.49999 13C2.56557 13.0008 2.63059 12.9879 2.69086 12.9621C2.75114 12.9362 2.80535 12.8981 2.84999 12.85L7.54999 8.16005L11.2 10.9C11.2956 10.9729 11.4147 11.008 11.5345 10.9988C11.6544 10.9896 11.7666 10.9367 11.85 10.85L19 3.71005V5.50005C19 5.63266 19.0527 5.75983 19.1464 5.8536C19.2402 5.94737 19.3674 6.00005 19.5 6.00005C19.6326 6.00005 19.7598 5.94737 19.8535 5.8536C19.9473 5.75983 20 5.63266 20 5.50005V2.50005C20.0149 2.43759 20.0149 2.37251 20 2.31005C19.9746 2.23858 19.9336 2.17367 19.88 2.12004C19.8264 2.06641 19.7615 2.02542 19.69 2.00005C19.6275 1.98517 19.5625 1.98517 19.5 2.00005H16.5C16.3674 2.00005 16.2402 2.05273 16.1464 2.1465C16.0527 2.24026 16 2.36744 16 2.50005C16 2.63266 16.0527 2.75983 16.1464 2.8536C16.2402 2.94737 16.3674 3.00005 16.5 3.00005H18.29L11.45 9.84005L7.79999 7.10005C7.70438 7.02721 7.58532 6.99205 7.46547 7.00127C7.34562 7.01049 7.23334 7.06344 7.14999 7.15005L2.14999 12.15C2.10216 12.1949 2.06404 12.2492 2.03798 12.3094C2.01192 12.3696 1.99847 12.4345 1.99847 12.5C1.99847 12.5656 2.01192 12.6305 2.03798 12.6907C2.06404 12.7509 2.10216 12.8052 2.14999 12.85C2.19464 12.8981 2.24884 12.9362 2.30912 12.9621C2.3694 12.9879 2.43442 13.0008 2.49999 13Z" fill="white"/>
</svg>
