<svg width="50" height="50" viewBox="0 0 50 50" fill="none" xmlns="http://www.w3.org/2000/svg">
<path d="M30.7378 20.8333C32.7514 20.8333 34.3837 22.4656 34.3837 24.4792V34.3729C34.3837 39.5517 30.1853 43.75 25.0066 43.75C19.8277 43.75 15.6293 39.5517 15.6293 34.3729V24.4792C15.6293 22.4656 17.2616 20.8333 19.2752 20.8333H30.7378ZM14.8572 20.8314C14.1291 21.7121 13.6594 22.8142 13.564 24.0217L13.546 24.4792V34.3729C13.546 36.1367 13.9445 37.8075 14.6563 39.3C13.9707 39.4854 13.2482 39.5833 12.5029 39.5833C7.89912 39.5833 4.16699 35.8512 4.16699 31.2475V24.4792C4.16699 22.5662 5.64014 20.9975 7.51381 20.8454L7.81283 20.8333L14.8572 20.8314ZM35.156 20.8314L42.1878 20.8333C44.2014 20.8333 45.8337 22.4656 45.8337 24.4792V31.25C45.8337 35.8523 42.1026 39.5833 37.5003 39.5833C36.7578 39.5833 36.0378 39.4862 35.3526 39.304C35.9789 37.9958 36.3624 36.5525 36.4485 35.03L36.467 34.3729V24.4792C36.467 23.0931 35.9749 21.8223 35.156 20.8314ZM25.0003 6.25C28.4522 6.25 31.2503 9.04823 31.2503 12.5C31.2503 15.9518 28.4522 18.75 25.0003 18.75C21.5485 18.75 18.7503 15.9518 18.7503 12.5C18.7503 9.04823 21.5485 6.25 25.0003 6.25ZM38.542 8.33333C41.4185 8.33333 43.7503 10.6652 43.7503 13.5417C43.7503 16.4181 41.4185 18.75 38.542 18.75C35.6655 18.75 33.3337 16.4181 33.3337 13.5417C33.3337 10.6652 35.6655 8.33333 38.542 8.33333ZM11.4587 8.33333C14.3351 8.33333 16.667 10.6652 16.667 13.5417C16.667 16.4181 14.3351 18.75 11.4587 18.75C8.58218 18.75 6.25033 16.4181 6.25033 13.5417C6.25033 10.6652 8.58218 8.33333 11.4587 8.33333Z" fill="white"/>
</svg>
